<svg width="174" height="60" viewBox="0 0 174 60" fill="none" xmlns="http://www.w3.org/2000/svg">
<g clip-path="url(#clip0_2463_4060)">
<path d="M81.3128 24.9429C81.9736 24.9243 82.631 25.0454 83.2431 25.2983C83.8551 25.5512 84.4084 25.9304 84.8677 26.4118C85.3548 26.9572 85.73 27.5952 85.9716 28.2886C86.2132 28.9821 86.3164 29.7172 86.2751 30.4513V38.5965H82.8871V30.8626C82.9089 30.4914 82.8558 30.1196 82.7311 29.7698C82.6064 29.4201 82.4126 29.0997 82.1616 28.8282C81.9114 28.5847 81.6157 28.3943 81.2917 28.2682C80.9678 28.142 80.6223 28.0827 80.2754 28.0937C79.8875 28.0752 79.5 28.1388 79.1378 28.2805C78.7755 28.4221 78.4464 28.6387 78.1715 28.9163C77.6008 29.6031 77.3195 30.4893 77.388 31.3841V38.5597H74V25.3101H77.388V26.779C77.8275 26.1534 78.4209 25.6548 79.1093 25.3327C79.7977 25.0107 80.5573 24.8763 81.3128 24.9429Z" fill="black"/>
<path d="M92.0204 33.3597C92.475 35.0244 93.7107 35.8568 95.7276 35.8568C96.2811 35.8867 96.8336 35.7816 97.3386 35.5502C97.8436 35.3189 98.2863 34.9681 98.6295 34.5275L101.357 36.1212C100.724 37.0486 99.867 37.7966 98.8677 38.2941C97.8683 38.7916 96.7599 39.0221 95.6478 38.9636C94.6892 39.0087 93.7316 38.8554 92.8335 38.5132C91.9354 38.171 91.1156 37.647 90.4243 36.9732C89.7753 36.316 89.2661 35.5313 88.9279 34.6673C88.5898 33.8033 88.43 32.8784 88.4583 31.9495C88.4322 31.0261 88.5911 30.107 88.9252 29.2474C89.2593 28.3878 89.7619 27.6056 90.4026 26.9478C91.0509 26.2825 91.8287 25.7607 92.6867 25.4156C93.5446 25.0704 94.464 24.9094 95.3866 24.9428C96.2766 24.9167 97.162 25.0826 97.9838 25.4296C98.8056 25.7766 99.545 26.2966 100.153 26.9552C101.404 28.305 102.079 30.0993 102.032 31.9495C102.03 32.4225 101.986 32.8944 101.901 33.3597H92.0204ZM91.9696 30.7009H98.6658C98.5323 29.9011 98.1046 29.1821 97.4687 28.6885C96.8723 28.2442 96.1488 28.0095 95.4084 28.0202C94.5955 27.9971 93.7994 28.2563 93.1521 28.7546C92.5475 29.2455 92.1297 29.9333 91.9696 30.7009Z" fill="black"/>
<path d="M111.528 28.6078H108.561V34.131C108.546 34.3135 108.568 34.4973 108.627 34.6705C108.685 34.8438 108.779 35.0028 108.902 35.1372C109.183 35.3743 109.538 35.5019 109.903 35.4971C110.444 35.5294 110.987 35.5294 111.528 35.4971V38.6112C109.2 38.8756 107.56 38.6479 106.602 37.9428C105.645 37.2377 105.151 35.9671 105.151 34.1456V28.6078H102.902V25.3101H105.188V22.6293L108.576 21.5938V25.3101H111.543L111.528 28.6078Z" fill="black"/>
<path d="M121.554 24.9429C122.414 24.9281 123.267 25.1016 124.055 25.4515C124.842 25.8013 125.546 26.3193 126.117 26.97C127.366 28.3153 128.041 30.1042 127.996 31.9496C128.044 33.7956 127.369 35.5857 126.117 36.9293C125.551 37.5773 124.854 38.0944 124.073 38.4455C123.292 38.7965 122.445 38.9733 121.59 38.9637C120.78 39.0078 119.972 38.8548 119.232 38.5174C118.492 38.1801 117.843 37.6682 117.339 37.0248V38.5965H113.951V20H117.339V26.9113C117.837 26.2676 118.478 25.7533 119.212 25.411C119.945 25.0687 120.748 24.9082 121.554 24.9429ZM118.326 34.6451C119.029 35.3197 119.961 35.6958 120.93 35.6958C121.899 35.6958 122.831 35.3197 123.535 34.6451C124.068 34.1242 124.435 33.4532 124.587 32.7189C124.739 31.9847 124.67 31.221 124.389 30.527C124.107 29.8329 123.626 29.2404 123.008 28.8262C122.391 28.412 121.664 28.1952 120.923 28.2039C120.442 28.1895 119.963 28.2753 119.517 28.456C119.07 28.6366 118.665 28.9083 118.326 29.2542C117.667 29.9936 117.303 30.954 117.303 31.9496C117.303 32.9453 117.667 33.9057 118.326 34.6451Z" fill="black"/>
<path d="M133.215 33.36C133.669 35.0247 134.903 35.8571 136.914 35.8571C137.475 35.8936 138.036 35.7917 138.549 35.5602C139.062 35.3286 139.512 34.9743 139.86 34.5278L142.588 36.1215C141.953 37.0511 141.094 37.8005 140.092 38.2981C139.09 38.7957 137.978 39.0249 136.864 38.9639C135.905 39.009 134.948 38.8557 134.049 38.5135C133.151 38.1713 132.332 37.6473 131.64 36.9735C130.99 36.3167 130.48 35.5322 130.141 34.6682C129.801 33.8043 129.64 32.8792 129.667 31.9498C129.643 31.0266 129.802 30.108 130.136 29.2486C130.47 28.3893 130.972 27.6069 131.611 26.9481C132.262 26.2833 133.041 25.762 133.9 25.4169C134.759 25.0718 135.679 24.9105 136.603 24.9431C137.49 24.9191 138.373 25.0861 139.192 25.433C140.011 25.7799 140.748 26.2988 141.354 26.9555C142.603 28.306 143.276 30.1005 143.226 31.9498C143.224 32.4228 143.18 32.8947 143.096 33.36H133.215ZM133.164 30.7012H139.86C139.726 29.9014 139.299 29.1824 138.663 28.6888C138.066 28.2445 137.343 28.0098 136.603 28.0205C135.789 27.995 134.992 28.2544 134.346 28.7549C133.739 29.2437 133.321 29.9324 133.164 30.7012Z" fill="black"/>
<path d="M155.479 25.3101H158.86V38.5964H155.479V37.0247C154.968 37.6673 154.313 38.178 153.569 38.5151C152.825 38.8521 152.013 39.0059 151.199 38.9637C150.348 38.971 149.505 38.7932 148.728 38.4422C147.95 38.0912 147.257 37.5752 146.694 36.9292C145.445 35.5839 144.77 33.795 144.815 31.9496C144.773 30.1047 145.448 28.317 146.694 26.97C147.258 26.3261 147.952 25.812 148.729 25.4624C149.506 25.1127 150.348 24.9356 151.199 24.9429C152.013 24.9007 152.825 25.0544 153.569 25.3915C154.313 25.7285 154.968 26.2392 155.479 26.8818V25.3101ZM149.225 34.6451C149.562 34.9982 149.967 35.2766 150.415 35.4625C150.864 35.6484 151.346 35.7377 151.83 35.7247C152.313 35.7394 152.794 35.6538 153.243 35.4732C153.692 35.2925 154.1 35.0207 154.442 34.6744C155.11 33.9396 155.48 32.9775 155.48 31.979C155.48 30.9804 155.11 30.0183 154.442 29.2835C154.099 28.9386 153.691 28.6677 153.242 28.4872C152.793 28.3067 152.313 28.2203 151.83 28.2332C151.348 28.2178 150.868 28.3031 150.42 28.4838C149.972 28.6645 149.565 28.9367 149.225 29.2835C148.567 30.0229 148.202 30.9833 148.202 31.979C148.202 32.9747 148.567 33.935 149.225 34.6744V34.6451Z" fill="black"/>
<path d="M170.598 25.3101H174.001V38.5964H170.613V37.1275C170.177 37.7549 169.587 38.2564 168.901 38.5823C168.215 38.9082 167.458 39.0472 166.702 38.9857C166.04 39.0057 165.381 38.8854 164.768 38.6324C164.155 38.3794 163.6 37.9994 163.14 37.5168C162.654 36.9712 162.279 36.333 162.039 35.6395C161.799 34.946 161.697 34.2109 161.74 33.4772V25.3101H165.128V33.0439C165.106 33.414 165.159 33.7848 165.284 34.1334C165.409 34.482 165.602 34.8011 165.854 35.071C166.104 35.3164 166.401 35.508 166.726 35.6342C167.052 35.7605 167.399 35.8187 167.747 35.8055C168.127 35.8197 168.506 35.7546 168.861 35.6144C169.215 35.4741 169.537 35.2617 169.807 34.9902C170.382 34.3054 170.666 33.4184 170.598 32.5224V25.3101Z" fill="black"/>
<path d="M30 0C24.0666 0 18.2664 1.75947 13.3329 5.05591C8.39943 8.35235 4.55426 13.0377 2.28363 18.5195C0.0129985 24.0013 -0.581101 30.0333 0.576455 35.8527C1.73401 41.6721 4.59123 47.0176 8.78681 51.2132C12.9824 55.4088 18.3279 58.266 24.1473 59.4236C29.9667 60.5811 35.9987 59.987 41.4805 57.7164C46.9623 55.4458 51.6476 51.6006 54.9441 46.6671C58.2405 41.7336 60 35.9334 60 30C60 22.0435 56.8393 14.4129 51.2132 8.7868C45.5871 3.16071 37.9565 0 30 0ZM31.9301 38.4723H30.5639L21.6362 29.7976V38.1759H17.3494V21.4265H18.7229L27.6434 29.9494V21.7229H31.9301V38.4723ZM41.0313 37.1566C39.9008 38.1312 38.4462 38.647 36.9542 38.6024H33.6072V34.8723H36.6795C37.8 34.8723 38.3639 34.3807 38.3639 33.3904C38.3639 32.4 37.8 31.9446 36.6795 31.9446H33.6072V28.388H34.8868C35.3434 28.4176 35.7939 28.27 36.1446 27.9759C36.2888 27.8346 36.4035 27.6658 36.4817 27.4797C36.5599 27.2935 36.6002 27.0935 36.6002 26.8916C36.6002 26.6896 36.5599 26.4897 36.4817 26.3035C36.4035 26.1173 36.2888 25.9486 36.1446 25.8072C35.7977 25.5167 35.353 25.3693 34.9012 25.3952H33.6072V21.7229H35.1687C36.653 21.6729 38.1032 22.1751 39.2386 23.1325C39.7682 23.5703 40.1903 24.1239 40.4723 24.7505C40.7543 25.3772 40.8887 26.0602 40.8651 26.747C40.9019 27.7887 40.534 28.8043 39.8386 29.5807C40.6757 29.8524 41.4023 30.3881 41.9093 31.1075C42.4163 31.8269 42.6764 32.6913 42.6506 33.5711C42.6654 34.2517 42.5276 34.927 42.2474 35.5474C41.9672 36.1678 41.5517 36.7177 41.0313 37.1566Z" fill="black"/>
</g>
<defs>
<clipPath id="clip0_2463_4060">
<rect width="174" height="60" fill="white"/>
</clipPath>
</defs>
</svg>
