<svg width="174" height="60" viewBox="0 0 174 60" fill="none" xmlns="http://www.w3.org/2000/svg">
<g clip-path="url(#clip0_1921_38944)">
<path d="M81.3128 24.9429C81.9736 24.9244 82.631 25.0454 83.2431 25.2983C83.8551 25.5513 84.4084 25.9305 84.8677 26.4118C85.3548 26.9573 85.73 27.5952 85.9716 28.2887C86.2132 28.9821 86.3164 29.7172 86.2751 30.4514V38.5965H82.8871V30.8627C82.9089 30.4915 82.8558 30.1196 82.7311 29.7699C82.6064 29.4201 82.4126 29.0997 82.1616 28.8282C81.9114 28.5847 81.6157 28.3943 81.2917 28.2682C80.9678 28.1421 80.6223 28.0828 80.2754 28.0937C79.8875 28.0753 79.5 28.1389 79.1378 28.2805C78.7755 28.4221 78.4464 28.6387 78.1715 28.9163C77.6008 29.6031 77.3195 30.4893 77.388 31.3841V38.5598H74V25.3102H77.388V26.7791C77.8275 26.1534 78.4209 25.6548 79.1093 25.3328C79.7977 25.0107 80.5573 24.8763 81.3128 24.9429V24.9429Z" fill="white"/>
<path d="M92.0209 33.3598C92.4755 35.0246 93.7113 35.857 95.7281 35.857C96.2816 35.8869 96.8341 35.7817 97.3391 35.5504C97.8441 35.319 98.2868 34.9683 98.63 34.5276L101.358 36.1214C100.725 37.0488 99.8675 37.7968 98.8682 38.2942C97.8688 38.7917 96.7604 39.0222 95.6483 38.9637C94.6897 39.0088 93.7321 38.8556 92.834 38.5134C91.9359 38.1711 91.1162 37.6471 90.4248 36.9734C89.7758 36.3162 89.2666 35.5314 88.9284 34.6674C88.5903 33.8034 88.4305 32.8785 88.4588 31.9497C88.4327 31.0263 88.5916 30.1071 88.9257 29.2475C89.2599 28.388 89.7624 27.6057 90.4031 26.948C91.0514 26.2826 91.8292 25.7609 92.6872 25.4157C93.5451 25.0706 94.4645 24.9096 95.3871 24.9429C96.2772 24.9168 97.1625 25.0828 97.9843 25.4297C98.8061 25.7767 99.5455 26.2968 100.154 26.9553C101.404 28.3051 102.079 30.0995 102.033 31.9497C102.03 32.4227 101.987 32.8946 101.902 33.3598H92.0209ZM91.9701 30.7011H98.6663C98.5328 29.9012 98.1051 29.1822 97.4692 28.6887C96.8728 28.2444 96.1493 28.0097 95.4089 28.0203C94.596 27.9972 93.7999 28.2564 93.1526 28.7548C92.5481 29.2456 92.1302 29.9334 91.9701 30.7011Z" fill="white"/>
<path d="M111.529 28.6079H108.562V34.131C108.546 34.3135 108.569 34.4973 108.627 34.6706C108.686 34.8439 108.78 35.0028 108.903 35.1372C109.183 35.3743 109.538 35.502 109.904 35.4971C110.445 35.5295 110.988 35.5295 111.529 35.4971V38.6112C109.2 38.8756 107.561 38.6479 106.603 37.9428C105.645 37.2378 105.152 35.9672 105.152 34.1457V28.6079H102.903V25.3102H105.188V22.6294L108.576 21.5938V25.3102H111.544L111.529 28.6079Z" fill="white"/>
<path d="M121.555 24.9429C122.415 24.9281 123.268 25.1016 124.056 25.4515C124.843 25.8013 125.547 26.3193 126.118 26.97C127.367 28.3153 128.042 30.1043 127.997 31.9496C128.045 33.7956 127.37 35.5857 126.118 36.9293C125.552 37.5773 124.855 38.0944 124.074 38.4455C123.293 38.7965 122.446 38.9733 121.591 38.9637C120.781 39.0078 119.973 38.8548 119.233 38.5174C118.493 38.1801 117.844 37.6682 117.34 37.0248V38.5965H113.952V20H117.34V26.9113C117.838 26.2676 118.479 25.7533 119.212 25.411C119.946 25.0687 120.749 24.9082 121.555 24.9429ZM118.327 34.6451C119.03 35.3197 119.962 35.6958 120.931 35.6958C121.9 35.6958 122.832 35.3197 123.536 34.6451C124.069 34.1242 124.436 33.4532 124.588 32.7189C124.74 31.9847 124.671 31.221 124.39 30.527C124.108 29.8329 123.627 29.2404 123.009 28.8262C122.392 28.412 121.665 28.1952 120.924 28.2039C120.443 28.1895 119.964 28.2753 119.518 28.456C119.071 28.6366 118.666 28.9083 118.327 29.2542C117.668 29.9936 117.304 30.954 117.304 31.9496C117.304 32.9453 117.668 33.9057 118.327 34.6451V34.6451Z" fill="white"/>
<path d="M133.214 33.3598C133.668 35.0246 134.902 35.857 136.914 35.857C137.474 35.8935 138.035 35.7916 138.548 35.56C139.061 35.3284 139.511 34.9741 139.859 34.5276L142.587 36.1214C141.952 37.051 141.093 37.8003 140.091 38.2979C139.089 38.7955 137.977 39.0248 136.863 38.9637C135.904 39.0088 134.947 38.8556 134.048 38.5134C133.15 38.1711 132.331 37.6471 131.639 36.9734C130.989 36.3165 130.479 35.532 130.14 34.668C129.8 33.8041 129.639 32.879 129.666 31.9497C129.642 31.0265 129.801 30.1078 130.135 29.2485C130.469 28.3891 130.971 27.6067 131.61 26.948C132.261 26.2832 133.04 25.7618 133.899 25.4167C134.758 25.0717 135.678 24.9103 136.602 24.9429C137.489 24.9189 138.372 25.0859 139.191 25.4328C140.01 25.7797 140.747 26.2986 141.353 26.9553C142.602 28.3059 143.275 30.1004 143.225 31.9497C143.223 32.4227 143.179 32.8946 143.095 33.3598H133.214ZM133.163 30.7011H139.859C139.725 29.9012 139.298 29.1822 138.662 28.6887C138.065 28.2444 137.342 28.0097 136.602 28.0203C135.788 27.9948 134.991 28.2543 134.345 28.7548C133.738 29.2435 133.32 29.9323 133.163 30.7011V30.7011Z" fill="white"/>
<path d="M155.479 25.3102H158.859V38.5965H155.479V37.0248C154.967 37.6674 154.313 38.1781 153.569 38.5152C152.825 38.8522 152.012 39.0059 151.198 38.9638C150.347 38.9711 149.504 38.7932 148.727 38.4422C147.95 38.0912 147.256 37.5753 146.693 36.9293C145.444 35.584 144.769 33.7951 144.814 31.9497C144.773 30.1048 145.447 28.317 146.693 26.97C147.257 26.3261 147.952 25.8121 148.729 25.4624C149.506 25.1128 150.348 24.9356 151.198 24.9429C152.012 24.9008 152.825 25.0545 153.569 25.3915C154.313 25.7286 154.967 26.2393 155.479 26.8819V25.3102ZM149.225 34.6451C149.561 34.9983 149.966 35.2767 150.415 35.4626C150.863 35.6484 151.345 35.7378 151.829 35.7248C152.312 35.7395 152.793 35.6539 153.243 35.4732C153.692 35.2926 154.1 35.0208 154.441 34.6745C155.109 33.9397 155.48 32.9776 155.48 31.979C155.48 30.9805 155.109 30.0184 154.441 29.2836C154.099 28.9387 153.691 28.6678 153.242 28.4873C152.793 28.3068 152.312 28.2204 151.829 28.2333C151.347 28.2179 150.867 28.3032 150.419 28.4839C149.971 28.6646 149.564 28.9368 149.225 29.2836C148.566 30.023 148.202 30.9834 148.202 31.979C148.202 32.9747 148.566 33.9351 149.225 34.6745V34.6451Z" fill="white"/>
<path d="M170.597 25.3102H174V38.5965H170.612V37.1276C170.176 37.7551 169.586 38.2565 168.901 38.5824C168.215 38.9083 167.457 39.0473 166.702 38.9858C166.04 39.0058 165.381 38.8855 164.767 38.6325C164.154 38.3795 163.599 37.9995 163.14 37.5169C162.653 36.9713 162.279 36.3332 162.038 35.6396C161.798 34.9461 161.696 34.211 161.739 33.4773V25.3102H165.127V33.044C165.105 33.4141 165.158 33.7849 165.283 34.1335C165.408 34.4821 165.602 34.8012 165.853 35.0711C166.103 35.3165 166.4 35.5081 166.725 35.6343C167.051 35.7606 167.398 35.8188 167.746 35.8056C168.127 35.8198 168.506 35.7547 168.86 35.6145C169.215 35.4742 169.537 35.2618 169.807 34.9903C170.381 34.3055 170.666 33.4185 170.597 32.5225V25.3102Z" fill="white"/>
<path d="M30 0C24.0666 0 18.2664 1.75947 13.3329 5.05591C8.39942 8.35235 4.55424 13.0377 2.28361 18.5195C0.0129833 24.0013 -0.581117 30.0333 0.57644 35.8527C1.734 41.6721 4.59122 47.0176 8.78679 51.2132C12.9824 55.4088 18.3279 58.266 24.1473 59.4236C29.9667 60.5811 35.9987 59.987 41.4805 57.7164C46.9623 55.4458 51.6476 51.6006 54.9441 46.6671C58.2405 41.7336 60 35.9334 60 30C60 22.0435 56.8393 14.4129 51.2132 8.7868C45.5871 3.16071 37.9565 0 30 0V0ZM31.9301 38.4723H30.5638L21.6361 29.7976V38.1759H17.3494V21.4265H18.7229L27.6434 29.9494V21.7229H31.9301V38.4723ZM41.0313 37.1566C39.9008 38.1312 38.4462 38.647 36.9542 38.6024H33.6072V34.8723H36.6795C37.8 34.8723 38.3638 34.3807 38.3638 33.3904C38.3638 32.4 37.8 31.9446 36.6795 31.9446H33.6072V28.388H34.8867C35.3434 28.4176 35.7939 28.27 36.1446 27.9759C36.2888 27.8346 36.4034 27.6658 36.4817 27.4797C36.5599 27.2935 36.6002 27.0935 36.6002 26.8916C36.6002 26.6896 36.5599 26.4897 36.4817 26.3035C36.4034 26.1173 36.2888 25.9486 36.1446 25.8072C35.7976 25.5167 35.353 25.3693 34.9012 25.3952H33.6072V21.7229H35.1687C36.653 21.6729 38.1031 22.1751 39.2385 23.1325C39.7682 23.5703 40.1903 24.1239 40.4723 24.7505C40.7543 25.3772 40.8887 26.0602 40.8651 26.747C40.9019 27.7887 40.534 28.8043 39.8385 29.5807C40.6757 29.8524 41.4023 30.3881 41.9093 31.1075C42.4163 31.8269 42.6764 32.6913 42.6506 33.5711C42.6654 34.2517 42.5276 34.927 42.2474 35.5474C41.9672 36.1678 41.5517 36.7177 41.0313 37.1566V37.1566Z" fill="white"/>
</g>
<defs>
<clipPath id="clip0_1921_38944">
<rect width="174" height="60" fill="white"/>
</clipPath>
</defs>
</svg>
