<svg width="80" height="80" viewBox="0 0 80 80" fill="none" xmlns="http://www.w3.org/2000/svg">
<path d="M40 0C32.0888 0 24.3552 2.34596 17.7772 6.74121C11.1992 11.1365 6.07234 17.3836 3.04484 24.6927C0.0173314 32.0017 -0.774802 40.0444 0.768607 47.8036C2.31202 55.5628 6.12165 62.6902 11.7157 68.2843C17.3098 73.8783 24.4372 77.688 32.1964 79.2314C39.9556 80.7748 47.9983 79.9827 55.3073 76.9552C62.6164 73.9277 68.8635 68.8008 73.2588 62.2228C77.654 55.6448 80 47.9112 80 40C80 29.3913 75.7857 19.2172 68.2843 11.7157C60.7828 4.21427 50.6087 0 40 0ZM42.5735 51.2964H40.7518L28.8482 39.7301V50.9012H23.1325V28.5687H24.9639L36.8578 39.9325V28.9638H42.5735V51.2964ZM54.7084 49.5422C53.201 50.8416 51.2616 51.5293 49.2723 51.4699H44.8097V46.4964H48.906C50.4 46.4964 51.1518 45.841 51.1518 44.5205C51.1518 43.2 50.4 42.5928 48.906 42.5928H44.8097V37.8506H46.5157C47.1246 37.8901 47.7253 37.6933 48.1928 37.3012C48.3851 37.1127 48.5379 36.8878 48.6423 36.6395C48.7466 36.3913 48.8003 36.1247 48.8003 35.8554C48.8003 35.5861 48.7466 35.3195 48.6423 35.0713C48.5379 34.823 48.3851 34.5981 48.1928 34.4096C47.7302 34.0222 47.1373 33.8258 46.535 33.8602H44.8097V28.9638H46.8916C48.8707 28.8972 50.8042 29.5668 52.3181 30.8434C53.0243 31.4271 53.5871 32.1652 53.9631 33.0007C54.3391 33.8362 54.5182 34.7469 54.4868 35.6626C54.5359 37.0516 54.0454 38.4057 53.1181 39.441C54.2343 39.8031 55.203 40.5174 55.879 41.4766C56.555 42.4359 56.9018 43.5884 56.8675 44.7614C56.8872 45.6689 56.7035 46.5693 56.3299 47.3965C55.9563 48.2238 55.4023 48.9569 54.7084 49.5422Z" fill="white"/>
</svg>
